<?xml version="1.0" encoding="UTF-8"?>
<svg xmlns="http://www.w3.org/2000/svg" version="1.1" viewBox="0 0 612 516.5">
  <defs>
    <style>
      .cls-1, .cls-2, .cls-3, .cls-4, .cls-5 {
        stroke: #5a89bb;
        stroke-miterlimit: 10;
      }

      .cls-1, .cls-3 {
        stroke-width: 30px;
      }

      .cls-1, .cls-5 {
        fill: #fff;
      }

      .cls-2 {
        fill: #e0eaf3;
      }

      .cls-2, .cls-4, .cls-5 {
        stroke-width: 16px;
      }

      .cls-3, .cls-4 {
        fill: none;
      }
    </style>
  </defs>
  <!-- Generator: Adobe Illustrator 28.7.1, SVG Export Plug-In . SVG Version: 1.2.0 Build 142)  -->
  <g>
    <g id="Layer_1">
      <path class="cls-1" d="M548.4,459.8H50.3c-16.4,0-29.8-15.3-29.8-34.2V58.4c0-18.9,13.3-34.2,29.8-34.2h498.1c16.4,0,29.8,15.3,29.8,34.2v367.3c0,18.9-13.3,34.2-29.8,34.2Z"/>
      <path class="cls-2" d="M30.4,361.7l78.3-107.6c15-18.2,27.6-23.4,49.2.3l50.6,53.7c27.6,25.2,48.3,28.5,76.8-3.3l87.4-112.5c11.2-14.4,32.1-15.2,44.3-1.6l153.4,182.7c5,5.7,7.9,14,7.9,21.7v34.2c0,16.8-13.1,30.4-29.4,30.4H49.9c-16.2,0-29.4-13.6-29.4-30.4v-45c0-8.6,3.6-16.9,9.8-22.7h0Z"/>
      <path class="cls-3" d="M548.4,459.8H50.3c-16.4,0-29.8-15.3-29.8-34.2V58.4c0-18.9,13.3-34.2,29.8-34.2h498.1c16.4,0,29.8,15.3,29.8,34.2v367.3c0,18.9-13.3,34.2-29.8,34.2Z"/>
      <g>
        <circle class="cls-5" cx="525.7" cy="427.5" r="78" transform="translate(-148.3 497) rotate(-45)"/>
        <line class="cls-4" x1="525.7" y1="383.1" x2="525.7" y2="471.9"/>
        <line class="cls-4" x1="570.1" y1="427.5" x2="481.3" y2="427.5"/>
      </g>
      <circle class="cls-2" cx="223" cy="203" r="39.5"/>
    </g>
  </g>
</svg>