<?xml version="1.0" encoding="UTF-8"?>
<svg xmlns="http://www.w3.org/2000/svg" version="1.1" viewBox="0 0 605.8 589.6">
  <defs>
    <style>
      .cls-1 {
        stroke-width: 20px;
      }

      .cls-1, .cls-2, .cls-3, .cls-4, .cls-5 {
        stroke: #5a89bb;
      }

      .cls-1, .cls-3, .cls-4, .cls-5 {
        stroke-miterlimit: 10;
      }

      .cls-1, .cls-4, .cls-5 {
        fill: none;
      }

      .cls-2 {
        fill: #fff;
        stroke-miterlimit: 10;
        stroke-width: 16px;
      }

      .cls-3 {
        fill: #e0eaf3;
        stroke-width: 18px;
      }

      .cls-4 {
        stroke-width: 30px;
      }

      .cls-5 {
        stroke-width: 16px;
      }
    </style>
  </defs>
  <!-- Generator: Adobe Illustrator 28.7.1, SVG Export Plug-In . SVG Version: 1.2.0 Build 142)  -->
  <g>
    <g id="Layer_1">
      <path class="cls-3" d="M59.3,429.5l63.7,65.4c9.3,9.5,24.6,9.6,34,.2L525.5,126.5c9.3-9.3,9.3-24.4,0-33.7l-67.2-67.2c-9.4-9.4-24.6-9.3-33.9.1L59.4,396.1c-9.1,9.2-9.2,24.1-.1,33.4Z"/>
      <path class="cls-4" d="M27.6,494.9l14-74.7c.9-4.8,3.2-9.2,6.6-12.7L424,26.2c9.6-9.7,25.2-9.8,34.8-.1l66.2,66.2c9.6,9.6,9.6,25.1,0,34.7L145.6,506.4c-3.8,3.8-8.7,6.2-14.1,7l-76.6,10.4c-29,3.1-34.4,5.4-27.4-28.8Z"/>
      <path class="cls-1" d="M22.8,523.2c90.3,80.5,167.6,58.4,199.5,24.6,11-11.7,29.7-27.8,43.8-34.6,43.8-21.4,99.7,41.5,166.8,23.2,11.3-3.1,19.8-7.6,25-10.7"/>
      <g>
        <circle class="cls-2" cx="519" cy="503.7" r="78" transform="translate(-204.2 514.5) rotate(-45)"/>
        <line class="cls-5" x1="518.9" y1="459.3" x2="518.9" y2="548.1"/>
        <line class="cls-5" x1="563.3" y1="503.7" x2="474.5" y2="503.7"/>
      </g>
    </g>
  </g>
</svg>